<mxfile host="app.diagrams.net" modified="2024-05-05T12:18:05.947Z" agent="Mozilla/5.0 (Windows NT 10.0; Win64; x64) AppleWebKit/537.36 (KHTML, like Gecko) Chrome/124.0.0.0 Safari/537.36 Edg/124.0.0.0" etag="IMJgxxdTRjNQQi3I3303" version="24.3.1" type="github">
  <diagram name="第 1 页" id="O6kHJOLOLbo-ZEbkLCx2">
    <mxGraphModel dx="827" dy="595" grid="1" gridSize="10" guides="1" tooltips="1" connect="1" arrows="1" fold="1" page="1" pageScale="1" pageWidth="827" pageHeight="1169" math="0" shadow="0">
      <root>
        <mxCell id="0" />
        <mxCell id="1" parent="0" />
        <mxCell id="1BjK5jYNnNQHmh6_HefA-4" value="&lt;span style=&quot;font-family: 宋体;&quot;&gt;&lt;font style=&quot;font-size: 40px;&quot;&gt;大模型微调分系统内部接口图&lt;/font&gt;&lt;/span&gt;" style="swimlane;whiteSpace=wrap;html=1;startSize=50;" vertex="1" parent="1">
          <mxGeometry x="20" y="20" width="540" height="430" as="geometry" />
        </mxCell>
        <mxCell id="1BjK5jYNnNQHmh6_HefA-1" value="数据层" style="rounded=0;whiteSpace=wrap;html=1;fillColor=none;fontSize=40;" vertex="1" parent="1BjK5jYNnNQHmh6_HefA-4">
          <mxGeometry x="30" y="80" width="60" height="300" as="geometry" />
        </mxCell>
        <mxCell id="1BjK5jYNnNQHmh6_HefA-2" value="数据层" style="rounded=0;whiteSpace=wrap;html=1;fillColor=none;fontSize=40;" vertex="1" parent="1BjK5jYNnNQHmh6_HefA-4">
          <mxGeometry x="240" y="80" width="60" height="300" as="geometry" />
        </mxCell>
        <mxCell id="1BjK5jYNnNQHmh6_HefA-3" value="数据层" style="rounded=0;whiteSpace=wrap;html=1;fillColor=none;fontSize=40;" vertex="1" parent="1BjK5jYNnNQHmh6_HefA-4">
          <mxGeometry x="450" y="80" width="60" height="300" as="geometry" />
        </mxCell>
        <mxCell id="1BjK5jYNnNQHmh6_HefA-5" value="" style="endArrow=classic;html=1;rounded=0;exitX=1;exitY=0.25;exitDx=0;exitDy=0;entryX=0;entryY=0.25;entryDx=0;entryDy=0;fontSize=20;" edge="1" parent="1BjK5jYNnNQHmh6_HefA-4">
          <mxGeometry width="50" height="50" relative="1" as="geometry">
            <mxPoint x="90" y="214.5" as="sourcePoint" />
            <mxPoint x="240" y="214.5" as="targetPoint" />
          </mxGeometry>
        </mxCell>
        <mxCell id="1BjK5jYNnNQHmh6_HefA-8" value="I1" style="edgeLabel;html=1;align=center;verticalAlign=middle;resizable=0;points=[];fontSize=40;" vertex="1" connectable="0" parent="1BjK5jYNnNQHmh6_HefA-5">
          <mxGeometry x="-0.2417" y="-2" relative="1" as="geometry">
            <mxPoint as="offset" />
          </mxGeometry>
        </mxCell>
        <mxCell id="1BjK5jYNnNQHmh6_HefA-6" value="" style="endArrow=classic;html=1;rounded=0;exitX=1;exitY=0.25;exitDx=0;exitDy=0;entryX=0;entryY=0.25;entryDx=0;entryDy=0;fontSize=20;" edge="1" parent="1BjK5jYNnNQHmh6_HefA-4" source="1BjK5jYNnNQHmh6_HefA-2" target="1BjK5jYNnNQHmh6_HefA-3">
          <mxGeometry width="50" height="50" relative="1" as="geometry">
            <mxPoint x="300" y="140" as="sourcePoint" />
            <mxPoint x="450" y="140" as="targetPoint" />
          </mxGeometry>
        </mxCell>
        <mxCell id="1BjK5jYNnNQHmh6_HefA-7" value="" style="endArrow=classic;html=1;rounded=0;fontSize=20;exitX=0;exitY=0.75;exitDx=0;exitDy=0;entryX=1;entryY=0.75;entryDx=0;entryDy=0;" edge="1" parent="1BjK5jYNnNQHmh6_HefA-4" source="1BjK5jYNnNQHmh6_HefA-3" target="1BjK5jYNnNQHmh6_HefA-2">
          <mxGeometry width="50" height="50" relative="1" as="geometry">
            <mxPoint x="310" y="250" as="sourcePoint" />
            <mxPoint x="360" y="300" as="targetPoint" />
          </mxGeometry>
        </mxCell>
      </root>
    </mxGraphModel>
  </diagram>
</mxfile>
